<?xml version="1.0" encoding="UTF-8"?>
<svg version="1.1" xmlns="http://www.w3.org/2000/svg" width="125" height="140">
<path d="M0 0 C2.19218189 4.38436379 1.15774649 10.36901402 0 15 C0.99 15.33 1.98 15.66 3 16 C3 16.66 3 17.32 3 18 C3.66 18 4.32 18 5 18 C7.625 20.375 7.625 20.375 10 23 C10 23.66 10 24.32 10 25 C10.7113208 24.98428955 11.4226416 24.9685791 12.15551758 24.95239258 C15.37443104 24.89008085 18.59321768 24.85102133 21.8125 24.8125 C22.93205078 24.78736328 24.05160156 24.76222656 25.20507812 24.73632812 C26.27822266 24.72666016 27.35136719 24.71699219 28.45703125 24.70703125 C29.44678955 24.6913208 30.43654785 24.67561035 31.45629883 24.65942383 C34 25 34 25 35.82373047 26.13745117 C37.5227438 28.82773193 37.37188702 30.92868757 37.36328125 34.09375 C37.36231445 35.88619141 37.36231445 35.88619141 37.36132812 37.71484375 C37.34521484 38.96394531 37.32910156 40.21304688 37.3125 41.5 C37.31572266 42.74910156 37.31894531 43.99820313 37.32226562 45.28515625 C37.26700255 54.59949617 37.26700255 54.59949617 35 58 C32.02174061 58.99275313 30.40091035 59.04849192 27.32421875 58.88671875 C26.41349609 58.85642578 25.50277344 58.82613281 24.56445312 58.79492188 C22.6573543 58.72371316 20.75088268 58.63278352 18.84570312 58.52148438 C14.52720343 58.40888079 10.92113508 58.38438387 7.3984375 61.1015625 C3.18431577 66.22566289 3.87253486 73.39182144 3.9375 79.6875 C3.93775177 80.36508362 3.93800354 81.04266724 3.93826294 81.74078369 C3.94339101 92.06117199 3.94339101 92.06117199 8.4909668 101.03515625 C11.98445056 104.27097716 15.87696615 106.55723002 20.625 107.1875 C26.33392697 106.45585051 30.30398174 102.10852029 34 98 C34.33 97.34 34.66 96.68 35 96 C35.66 96 36.32 96 37 96 C37 95.34 37 94.68 37 94 C37.66 94 38.32 94 39 94 C40.94652451 90.72436574 41.25006044 88.25034866 41.2734375 84.46484375 C41.2940625 83.40845703 41.3146875 82.35207031 41.3359375 81.26367188 C41.36202412 79.04239609 41.38022638 76.821014 41.390625 74.59960938 C41.41382812 73.54451172 41.43703125 72.48941406 41.4609375 71.40234375 C41.46915527 70.43804443 41.47737305 69.47374512 41.48583984 68.48022461 C42 66 42 66 43.66259766 64.18945312 C48.37970467 61.78902014 53.81893986 62.53159346 59 62.5625 C60.18851562 62.54251953 61.37703125 62.52253906 62.6015625 62.50195312 C64.31472656 62.50291992 64.31472656 62.50291992 66.0625 62.50390625 C67.10535156 62.50205322 68.14820312 62.5002002 69.22265625 62.49829102 C72.77563428 63.14011326 73.93940633 64.05105607 76 67 C76.40991211 69.88500977 76.40991211 69.88500977 76.27734375 73.19140625 C76.23287109 74.38314453 76.18839844 75.57488281 76.14257812 76.80273438 C76.04106445 78.66381836 76.04106445 78.66381836 75.9375 80.5625 C75.8765918 82.42938477 75.8765918 82.42938477 75.81445312 84.33398438 C75.40782639 93.382654 75.40782639 93.382654 73.75683594 95.88183594 C71.39552673 97.3847259 70.01051805 97.19711232 67.23828125 96.94921875 C57.3515598 96.44807179 49.4602465 96.32791869 41.71435547 103.12939453 C36.27081844 108.65434926 32.20401114 113.27486178 31.6875 121.3125 C31.77386719 122.33988281 31.86023438 123.36726563 31.94921875 124.42578125 C32 127 32 127 30.74731445 128.63598633 C27.75480984 130.9720382 24.13572159 130.42962687 20.5 130.375 C19.72785156 130.38660156 18.95570312 130.39820313 18.16015625 130.41015625 C12.4885074 130.38066761 12.4885074 130.38066761 10.26367188 128.64697266 C8.36073916 126.16683662 8.88178064 124.07370345 9 121 C8.5502403 113.80489804 5.69366608 109.94541762 0.44042969 105.26074219 C-5.34289478 100.92145225 -12.5219469 101.78226945 -19.375 102.125 C-21.53255557 102.19941513 -23.68794455 102.2573342 -25.84658813 102.28707886 C-27.7884013 102.31853025 -29.72921204 102.40019998 -31.66943359 102.48486328 C-35 102 -35 102 -37.90234375 99.96435547 C-40.46903736 96.3371681 -40.72594952 93.54378947 -40.6640625 89.25 C-40.66884613 88.51426758 -40.67362976 87.77853516 -40.67855835 87.02050781 C-40.6819488 85.47068127 -40.67280592 83.92078239 -40.65185547 82.37109375 C-40.62507002 80.00618214 -40.65162417 77.64601498 -40.68359375 75.28125 C-40.68028949 73.77082292 -40.6738829 72.26039877 -40.6640625 70.75 C-40.67418365 70.0477832 -40.68430481 69.34556641 -40.69473267 68.62207031 C-40.60222124 64.72346742 -40.10102819 63.12215653 -37.58349609 60.078125 C-33.5381295 56.82409358 -31.50947327 56.90547752 -26.34765625 57.0078125 C-25.00065858 57.02532921 -23.65365289 57.04223745 -22.30664062 57.05859375 C-20.18214818 57.08956518 -18.05805492 57.12509686 -15.93383789 57.17138672 C-13.88422653 57.21372521 -11.83508541 57.23716471 -9.78515625 57.2578125 C-8.55676025 57.2798877 -7.32836426 57.30196289 -6.06274414 57.32470703 C-2.71781473 56.97008319 -2.04171463 56.5227773 0 54 C0.66 54 1.32 54 2 54 C2 53.34 2 52.68 2 52 C2.66 52 3.32 52 4 52 C4.84328525 37.91428583 4.84328525 37.91428583 -1.25 25.8125 C-6.3222654 21.62714806 -10.84875808 20.94054261 -17.3125 21.0625 C-20 21 -20 21 -22 19 C-22.3614962 16.15759035 -22.60390517 13.41606183 -22.75 10.5625 C-22.80542969 9.78583984 -22.86085938 9.00917969 -22.91796875 8.20898438 C-23.24964658 2.37446987 -23.24964658 2.37446987 -21 -1 C-18.13896052 -1.44129905 -15.50020919 -1.69548567 -12.625 -1.8125 C-11.85671875 -1.86341797 -11.0884375 -1.91433594 -10.296875 -1.96679688 C-3.12638575 -2.33276475 -3.12638575 -2.33276475 0 0 Z " fill="#5C17E8" transform="translate(45,6)"/>
<path d="M0 0 C2.19218189 4.38436379 1.15774649 10.36901402 0 15 C0.99 15.33 1.98 15.66 3 16 C3 16.66 3 17.32 3 18 C3.66 18 4.32 18 5 18 C7.625 20.375 7.625 20.375 10 23 C10 23.66 10 24.32 10 25 C17.92 25 25.84 25 34 25 C34 25.33 34 25.66 34 26 C23.66666667 26 13.33333333 26 3 26 C3.309375 26.639375 3.61875 27.27875 3.9375 27.9375 C5.3382557 31.97497231 5.72734811 35.74910914 6 40 C6.07734375 41.11117187 6.1546875 42.22234375 6.234375 43.3671875 C6.28078125 44.52476563 6.3271875 45.68234375 6.375 46.875 C6.42398438 47.96554688 6.47296875 49.05609375 6.5234375 50.1796875 C6 53 6 53 3.6015625 54.9453125 C2.74304688 55.29335938 1.88453125 55.64140625 1 56 C0.34 55.67 -0.32 55.34 -1 55 C0.485 54.505 0.485 54.505 2 54 C2 53.34 2 52.68 2 52 C2.66 52 3.32 52 4 52 C4.84328525 37.91428583 4.84328525 37.91428583 -1.25 25.8125 C-6.3222654 21.62714806 -10.84875808 20.94054261 -17.3125 21.0625 C-20 21 -20 21 -22 19 C-22.3614962 16.15759035 -22.60390517 13.41606183 -22.75 10.5625 C-22.80542969 9.78583984 -22.86085938 9.00917969 -22.91796875 8.20898438 C-23.24964658 2.37446987 -23.24964658 2.37446987 -21 -1 C-18.13896052 -1.44129905 -15.50020919 -1.69548567 -12.625 -1.8125 C-11.47257812 -1.88887695 -11.47257812 -1.88887695 -10.296875 -1.96679688 C-3.12638575 -2.33276475 -3.12638575 -2.33276475 0 0 Z " fill="#4C1AB8" transform="translate(45,6)"/>
<path d="M0 0 C0 0.66 0 1.32 0 2 C-0.99 2.495 -0.99 2.495 -2 3 C-2 14.88 -2 26.76 -2 39 C-0.68 39.33 0.64 39.66 2 40 C2 40.66 2 41.32 2 42 C2.92337158 41.99476318 3.84674316 41.98952637 4.7980957 41.98413086 C8.22534814 41.96708415 11.6525555 41.9545475 15.07983398 41.94506836 C16.56291413 41.94004097 18.04598933 41.93321815 19.52905273 41.92456055 C21.66130801 41.91242518 23.79349773 41.90675575 25.92578125 41.90234375 C27.20880127 41.89710693 28.49182129 41.89187012 29.8137207 41.88647461 C33 42 33 42 36 43 C36 42.01 36 41.02 36 40 C34.35 39.67 32.7 39.34 31 39 C31.33 37.68 31.66 36.36 32 35 C33.65 35 35.3 35 37 35 C37 24.77 37 14.54 37 4 C38.32 4.33 39.64 4.66 41 5 C40.67 5.33 40.34 5.66 40 6 C39.58724282 10.10721157 39.47161664 14.21789124 39.37524414 18.34350586 C39.33387502 19.72413988 39.27278704 21.10434353 39.19067383 22.4831543 C38.82218441 28.77786524 38.5273828 33.92619844 42.27490234 39.20361328 C44.74115734 41.67073837 47.22219849 43.893686 50 46 C46.13304322 46 43.4911548 44.58090029 40 43 C40 45.31 40 47.62 40 50 C41.32 50 42.64 50 44 50 C46.71208028 55.85412451 46.61334633 61.62021444 47 68 C53.27 68 59.54 68 66 68 C66 68.66 66 69.32 66 70 C62.72978041 71.63510979 59.15266249 71.22628299 55.5625 71.25 C54.78583984 71.270625 54.00917969 71.29125 53.20898438 71.3125 C47.45396453 71.35215561 47.45396453 71.35215561 45.26147461 69.65136719 C43.36361836 67.16692754 43.88174405 65.07465481 44 62 C43.5502403 54.80489804 40.69366608 50.94541762 35.44042969 46.26074219 C29.65710522 41.92145225 22.4780531 42.78226945 15.625 43.125 C13.46744443 43.19941513 11.31205545 43.2573342 9.15341187 43.28707886 C7.2115987 43.31853025 5.27078796 43.40019998 3.33056641 43.48486328 C-0 43 -0 43 -2.90673828 40.96655273 C-5.4808061 37.31860568 -5.69391957 34.52431972 -5.59375 30.21484375 C-5.59379028 29.47673965 -5.59383057 28.73863556 -5.59387207 27.97816467 C-5.5885299 26.42407678 -5.57100253 24.86998839 -5.54199219 23.31616211 C-5.50006273 20.94105338 -5.50093222 18.56877661 -5.5078125 16.19335938 C-5.49732126 14.67966785 -5.4843835 13.1659909 -5.46875 11.65234375 C-5.46854858 10.94496567 -5.46834717 10.23758759 -5.46813965 9.5087738 C-5.37090359 5.4495068 -5.08216251 0 0 0 Z " fill="#591ADE" transform="translate(10,65)"/>
<path d="M0 0 C0.75410156 0.00451172 1.50820313 0.00902344 2.28515625 0.01367188 C4.14847127 0.02546501 6.01174555 0.04340058 7.875 0.0625 C7.90217692 2.12492617 7.9214758 4.18745703 7.9375 6.25 C7.94910156 7.39855469 7.96070312 8.54710937 7.97265625 9.73046875 C7.875 13.0625 7.875 13.0625 7.30859375 15.86328125 C6.63583565 18.09398809 6.63583565 18.09398809 7.875 20.0625 C1.935 19.7325 -4.005 19.4025 -10.125 19.0625 C-10.125 10.0625 -10.125 10.0625 -8.125 7.0625 C-8.785 7.0625 -9.445 7.0625 -10.125 7.0625 C-10.125 5.0825 -10.125 3.1025 -10.125 1.0625 C-6.93675432 -0.53162284 -3.49603338 -0.03924735 0 0 Z " fill="#5D16E9" transform="translate(35.125,6.9375)"/>
<path d="M0 0 C0.66 0.33 1.32 0.66 2 1 C1.91932065 5.43825599 1.80645865 9.87511798 1.6875 14.3125 C1.66494141 15.57513672 1.64238281 16.83777344 1.61914062 18.13867188 C1.58369141 19.34716797 1.54824219 20.55566406 1.51171875 21.80078125 C1.48553467 22.91622314 1.45935059 24.03166504 1.43237305 25.1809082 C1 28 1 28 -0.234375 29.890625 C-2.60198874 31.37824071 -3.99146142 31.19693531 -6.76171875 30.94921875 C-16.64902942 30.44804192 -24.54020386 30.32809511 -32.28637695 37.13012695 C-37.81416291 42.7406197 -41.8118086 47.48874624 -42.5 55.5 C-42.4051348 58.57170398 -42.4051348 58.57170398 -42 61 C-42.33 61 -42.66 61 -43 61 C-43 55.39 -43 49.78 -43 44 C-43.66 44 -44.32 44 -45 44 C-45.33 43.34 -45.66 42.68 -46 42 C-50.29 42 -54.58 42 -59 42 C-58.67 41.34 -58.34 40.68 -58 40 C-56.700625 40.165 -55.40125 40.33 -54.0625 40.5 C-49.41871784 40.55896866 -47.346443 39.07345972 -43.9375 36 C-42.60432689 34.68733725 -41.28445631 33.36036981 -40 32 C-38.84058962 35.47823115 -39.29179116 37.45895578 -40 41 C-39.34 41 -38.68 41 -38 41 C-38 40.34 -38 39.68 -38 39 C-37.34 39 -36.68 39 -36 39 C-36 38.34 -36 37.68 -36 37 C-35.01 37 -34.02 37 -33 37 C-33.061875 36.21625 -33.12375 35.4325 -33.1875 34.625 C-33.0946875 33.325625 -33.0946875 33.325625 -33 32 C-29.45986775 29.63991183 -27.98878045 29.76536356 -23.80078125 29.8046875 C-22.59228516 29.81113281 -21.38378906 29.81757812 -20.13867188 29.82421875 C-18.2447168 29.84935547 -18.2447168 29.84935547 -16.3125 29.875 C-15.03826172 29.88402344 -13.76402344 29.89304687 -12.45117188 29.90234375 C-9.30059373 29.92594359 -6.15039017 29.95886806 -3 30 C-3 28.35 -3 26.7 -3 25 C-2.01 25.33 -1.02 25.66 0 26 C0 17.42 0 8.84 0 0 Z " fill="#4515AB" transform="translate(119,72)"/>
<path d="M0 0 C0 0.66 0 1.32 0 2 C-0.99 2.495 -0.99 2.495 -2 3 C-2 14.88 -2 26.76 -2 39 C-0.68 39.33 0.64 39.66 2 40 C2 40.66 2 41.32 2 42 C2.92337158 41.99476318 3.84674316 41.98952637 4.7980957 41.98413086 C8.22534814 41.96708415 11.6525555 41.9545475 15.07983398 41.94506836 C16.56291413 41.94004097 18.04598933 41.93321815 19.52905273 41.92456055 C21.66130801 41.91242518 23.79349773 41.90675575 25.92578125 41.90234375 C27.20880127 41.89710693 28.49182129 41.89187012 29.8137207 41.88647461 C33 42 33 42 36 43 C36.495 42.01 36.495 42.01 37 41 C37.495 44.96 37.495 44.96 38 49 C36.74425171 47.77893555 36.74425171 47.77893555 35.46313477 46.53320312 C31.91889943 43.59292722 29.21819383 43.41036652 24.58984375 43.46875 C23.89991837 43.46548706 23.20999298 43.46222412 22.49916077 43.4588623 C20.31113733 43.4490817 18.12532503 43.47054897 15.9375 43.5 C13.04996854 43.53877588 10.16505129 43.54492612 7.27734375 43.53125 C6.00109131 43.54736328 4.72483887 43.56347656 3.40991211 43.58007812 C0 43 0 43 -2.91772461 40.95336914 C-5.48423911 37.31318554 -5.69368703 34.51431536 -5.59375 30.21484375 C-5.59379028 29.47673965 -5.59383057 28.73863556 -5.59387207 27.97816467 C-5.5885299 26.42407678 -5.57100253 24.86998839 -5.54199219 23.31616211 C-5.50006273 20.94105338 -5.50093222 18.56877661 -5.5078125 16.19335938 C-5.49732126 14.67966785 -5.4843835 13.1659909 -5.46875 11.65234375 C-5.46854858 10.94496567 -5.46834717 10.23758759 -5.46813965 9.5087738 C-5.37090359 5.4495068 -5.08216251 0 0 0 Z " fill="#43199D" transform="translate(10,65)"/>
<path d="M0 0 C1.72669922 0.00773437 1.72669922 0.00773437 3.48828125 0.015625 C5.28458984 0.0465625 5.28458984 0.0465625 7.1171875 0.078125 C8.32246094 0.08328125 9.52773437 0.0884375 10.76953125 0.09375 C19.68350893 0.17378571 19.68350893 0.17378571 21.9921875 1.328125 C21.9921875 1.988125 21.9921875 2.648125 21.9921875 3.328125 C21.19522461 3.32288818 20.39826172 3.31765137 19.57714844 3.31225586 C15.96550281 3.291466 12.35386979 3.27845839 8.7421875 3.265625 C7.48792969 3.25724609 6.23367187 3.24886719 4.94140625 3.24023438 C3.73613281 3.23701172 2.53085938 3.23378906 1.2890625 3.23046875 C0.17885742 3.22523193 -0.93134766 3.21999512 -2.07519531 3.21459961 C-4.57938629 3.31154007 -6.6259281 3.59582224 -9.0078125 4.328125 C-8.98424683 5.37154053 -8.98424683 5.37154053 -8.96020508 6.43603516 C-8.89758387 9.60831471 -8.85873573 12.78046385 -8.8203125 15.953125 C-8.79517578 17.04753906 -8.77003906 18.14195313 -8.74414062 19.26953125 C-8.64929776 29.70224621 -8.64929776 29.70224621 -12.0078125 34.328125 C-14.6953125 35.203125 -14.6953125 35.203125 -17.0078125 35.328125 C-17.0078125 34.668125 -17.0078125 34.008125 -17.0078125 33.328125 C-16.3478125 33.328125 -15.6878125 33.328125 -15.0078125 33.328125 C-15.0078125 32.668125 -15.0078125 32.008125 -15.0078125 31.328125 C-14.3478125 31.328125 -13.6878125 31.328125 -13.0078125 31.328125 C-11.06128799 28.05249074 -10.75775206 25.57847366 -10.734375 21.79296875 C-10.71375 20.73658203 -10.693125 19.68019531 -10.671875 18.59179688 C-10.64578838 16.37052109 -10.62758612 14.149139 -10.6171875 11.92773438 C-10.59398438 10.87263672 -10.57078125 9.81753906 -10.546875 8.73046875 C-10.53865723 7.76616943 -10.53043945 6.80187012 -10.52197266 5.80834961 C-10.0078125 3.328125 -10.0078125 3.328125 -8.34960938 1.51098633 C-5.3936701 0.0179165 -3.30663594 -0.02927567 0 0 Z " fill="#361285" transform="translate(97.0078125,68.671875)"/>
<path d="M0 0 C2.875 0.1875 2.875 0.1875 6 1 C9.00208992 6.51735444 8.62876071 12.87455167 9 19 C15.27 19 21.54 19 28 19 C28 19.66 28 20.32 28 21 C24.72978041 22.63510979 21.15266249 22.22628299 17.5625 22.25 C16.78583984 22.270625 16.00917969 22.29125 15.20898438 22.3125 C9.45421997 22.35215385 9.45421997 22.35215385 7.2746582 20.66235352 C5.32985584 18.12602727 5.66128165 15.83311872 5.625 12.6875 C5.34837793 6.94911087 5.34837793 6.94911087 2.4375 2.1875 C1.633125 1.465625 0.82875 0.74375 0 0 Z " fill="#4517A9" transform="translate(48,114)"/>
<path d="M0 0 C0.66 0.33 1.32 0.66 2 1 C1.91932065 5.43825599 1.80645865 9.87511798 1.6875 14.3125 C1.66494141 15.57513672 1.64238281 16.83777344 1.61914062 18.13867188 C1.58369141 19.34716797 1.54824219 20.55566406 1.51171875 21.80078125 C1.48553467 22.91622314 1.45935059 24.03166504 1.43237305 25.1809082 C1 28 1 28 -0.20800781 29.86206055 C-2.62314824 31.39570762 -4.33150035 31.38432807 -7.18359375 31.40625 C-8.69856445 31.43912109 -8.69856445 31.43912109 -10.24414062 31.47265625 C-11.82485352 31.48619141 -11.82485352 31.48619141 -13.4375 31.5 C-15.51968886 31.51789481 -17.60181672 31.5486382 -19.68359375 31.59375 C-20.60712646 31.60083984 -21.53065918 31.60792969 -22.48217773 31.61523438 C-25.41387196 32.0632466 -26.80297059 33.05737701 -29 35 C-28.67 33.35 -28.34 31.7 -28 30 C-19.75 30 -11.5 30 -3 30 C-3 28.35 -3 26.7 -3 25 C-2.01 25.33 -1.02 25.66 0 26 C0 17.42 0 8.84 0 0 Z " fill="#461A9F" transform="translate(119,72)"/>
<path d="M0 0 C1.32 0.33 2.64 0.66 4 1 C3.67 1.33 3.34 1.66 3 2 C2.58724282 6.10721157 2.47161664 10.21789124 2.37524414 14.34350586 C2.33387502 15.72413988 2.27278704 17.10434353 2.19067383 18.4831543 C1.82218441 24.77786524 1.5273828 29.92619844 5.27490234 35.20361328 C7.74115734 37.67073837 10.22219849 39.893686 13 42 C9.13304322 42 6.4911548 40.58090029 3 39 C3.33 38.34 3.66 37.68 4 37 C3.01 36.34 2.02 35.68 1 35 C0.66215904 32.31215183 0.51107756 29.8428575 0.48828125 27.1484375 C0.47033005 26.37440582 0.45237885 25.60037415 0.43388367 24.80288696 C0.37963608 22.32698033 0.34583991 19.85126797 0.3125 17.375 C0.27933954 15.69788954 0.24485107 14.02080477 0.20898438 12.34375 C0.12390183 8.22930659 0.05716047 4.11492223 0 0 Z " fill="#4D25A8" transform="translate(47,69)"/>
<path d="M0 0 C0.99 0.66 1.98 1.32 3 2 C3.37231445 4.65795898 3.37231445 4.65795898 3.36328125 7.99609375 C3.36263672 9.19427734 3.36199219 10.39246094 3.36132812 11.62695312 C3.34521484 12.88443359 3.32910156 14.14191406 3.3125 15.4375 C3.31733398 17.31791992 3.31733398 17.31791992 3.32226562 19.23632812 C3.26692108 28.59961838 3.26692108 28.59961838 1 32 C-1.70716242 32.90238747 -3.23776768 33.11851302 -6.01171875 33.09765625 C-7.14770508 33.09282227 -7.14770508 33.09282227 -8.30664062 33.08789062 C-9.48516602 33.07532227 -9.48516602 33.07532227 -10.6875 33.0625 C-11.48478516 33.05798828 -12.28207031 33.05347656 -13.10351562 33.04882812 C-15.06904257 33.0370585 -17.03453085 33.01912348 -19 33 C-19 32.67 -19 32.34 -19 32 C-12.73 31.67 -6.46 31.34 0 31 C0.83235894 27.67056423 1.12845125 25.33237925 1.1328125 21.97265625 C1.13410156 21.01552734 1.13539062 20.05839844 1.13671875 19.07226562 C1.13091797 17.58243164 1.13091797 17.58243164 1.125 16.0625 C1.12886719 15.07314453 1.13273437 14.08378906 1.13671875 13.06445312 C1.13542969 12.10603516 1.13414063 11.14761719 1.1328125 10.16015625 C1.13168457 9.29011963 1.13055664 8.42008301 1.12939453 7.52368164 C0.9964076 4.92993466 0.57137724 2.53034439 0 0 Z " fill="#37137B" transform="translate(79,32)"/>
<path d="M0 0 C2.97 0.495 2.97 0.495 6 1 C6 1.66 6 2.32 6 3 C6.92337158 2.99476318 7.84674316 2.98952637 8.7980957 2.98413086 C12.22534814 2.96708415 15.6525555 2.9545475 19.07983398 2.94506836 C20.56291413 2.94004097 22.04598933 2.93321815 23.52905273 2.92456055 C25.66130801 2.91242518 27.79349773 2.90675575 29.92578125 2.90234375 C31.20880127 2.89710693 32.49182129 2.89187012 33.8137207 2.88647461 C37 3 37 3 40 4 C40.33 3.34 40.66 2.68 41 2 C41.495 5.96 41.495 5.96 42 10 C41.16355957 9.18668213 40.32711914 8.37336426 39.46533203 7.53540039 C35.91570319 4.59066112 33.18947026 4.39839802 28.5546875 4.43359375 C27.86239044 4.42795914 27.17009338 4.42232452 26.45681763 4.41651917 C24.26217513 4.4001611 22.06957015 4.41553982 19.875 4.4375 C17.67348511 4.45412339 15.47329487 4.46316832 13.27175903 4.44776917 C11.28000414 4.43427347 9.2881156 4.44964821 7.29638672 4.46655273 C3.48430218 3.92701092 2.33981044 2.97576458 0 0 Z " fill="#4F1FB4" transform="translate(6,104)"/>
<path d="M0 0 C1.65 0 3.3 0 5 0 C7.98755049 5.06584649 8.70314951 9.25806339 9 15 C9.07605469 16.10988281 9.15210938 17.21976563 9.23046875 18.36328125 C9.27816406 19.52214844 9.32585938 20.68101563 9.375 21.875 C9.42398438 22.96554688 9.47296875 24.05609375 9.5234375 25.1796875 C9 28 9 28 6.6015625 29.9453125 C5.74304687 30.29335938 4.88453125 30.64140625 4 31 C3.34 30.67 2.68 30.34 2 30 C2.99 29.67 3.98 29.34 5 29 C5 28.34 5 27.68 5 27 C5.66 27 6.32 27 7 27 C7.00631985 23.81073176 6.94629902 20.62590292 6.875 17.4375 C6.87757812 16.54224609 6.88015625 15.64699219 6.8828125 14.72460938 C6.705497 8.67371807 5.56379501 5.49726542 1.28173828 1.16430664 C0.85876465 0.78008545 0.43579102 0.39586426 0 0 Z " fill="#4E1FAC" transform="translate(42,31)"/>
<path d="M0 0 C0.66 0.33 1.32 0.66 2 1 C1.34 1.66 0.68 2.32 0 3 C-0.32195798 5.42326406 -0.32195798 5.42326406 -0.30859375 8.234375 C-0.33373047 9.28367187 -0.35886719 10.33296875 -0.38476562 11.4140625 C-0.41967401 13.62234103 -0.45097641 15.83067977 -0.47851562 18.0390625 C-0.73887882 28.42818897 -0.73887882 28.42818897 -4 33 C-6.6875 33.875 -6.6875 33.875 -9 34 C-9 33.34 -9 32.68 -9 32 C-8.34 32 -7.68 32 -7 32 C-7 31.34 -7 30.68 -7 30 C-6.34 30 -5.68 30 -5 30 C-3.06156651 26.72768438 -2.72894274 24.20908333 -2.65625 20.4296875 C-2.62660156 19.36878906 -2.59695312 18.30789062 -2.56640625 17.21484375 C-2.52198014 14.98047183 -2.47771039 12.7460968 -2.43359375 10.51171875 C-2.40394531 9.45339844 -2.37429687 8.39507812 -2.34375 7.3046875 C-2.31571289 5.8503833 -2.31571289 5.8503833 -2.28710938 4.36669922 C-2 2 -2 2 0 0 Z " fill="#2F0F70" transform="translate(89,70)"/>
<path d="M0 0 C2.5 1.375 2.5 1.375 5 3 C5 3.66 5 4.32 5 5 C12.92 5 20.84 5 29 5 C29 5.33 29 5.66 29 6 C24.9169058 6.11614929 20.83423623 6.18723457 16.75 6.25 C15.59113281 6.28351562 14.43226562 6.31703125 13.23828125 6.3515625 C12.12324219 6.36445312 11.00820313 6.37734375 9.859375 6.390625 C8.83295898 6.41157227 7.80654297 6.43251953 6.74902344 6.45410156 C3.29586195 5.8836859 2.12091773 4.72689423 0 2 C0 1.34 0 0.68 0 0 Z " fill="#47209D" transform="translate(50,26)"/>
<path d="M0 0 C8.58 0 17.16 0 26 0 C26 0.33 26 0.66 26 1 C25.32420898 1.01458252 24.64841797 1.02916504 23.95214844 1.04418945 C20.88419478 1.11875411 17.81731924 1.21538655 14.75 1.3125 C13.15478516 1.34633789 13.15478516 1.34633789 11.52734375 1.38085938 C9.99013672 1.4340332 9.99013672 1.4340332 8.421875 1.48828125 C7.47924805 1.51446533 6.53662109 1.54064941 5.56542969 1.56762695 C2.6284586 2.06261894 1.20826197 3.04845984 -1 5 C-0.67 3.35 -0.34 1.7 0 0 Z " fill="#3D168A" transform="translate(91,102)"/>
<path d="M0 0 C4.13621084 3.3810038 7.81316569 6.66590534 11 11 C6 9 6 9 1 7 C1.33 6.34 1.66 5.68 2 5 C1.01 4.34 0.02 3.68 -1 3 C-0.67 2.01 -0.34 1.02 0 0 Z " fill="#310F83" transform="translate(49,101)"/>
<path d="M0 0 C2.97 0.495 2.97 0.495 6 1 C7.2039337 4.75399798 7.09877617 8.33217412 7.0625 12.25 C7.05347656 13.51328125 7.04445313 14.7765625 7.03515625 16.078125 C7.02355469 17.04234375 7.01195312 18.0065625 7 19 C6.67 19 6.34 19 6 19 C5.98582031 18.13117188 5.97164062 17.26234375 5.95703125 16.3671875 C5.8702591 8.72645334 5.8702591 8.72645334 2.4375 2.1875 C1.633125 1.465625 0.82875 0.74375 0 0 Z " fill="#340F86" transform="translate(48,114)"/>
<path d="M0 0 C0.33 0 0.66 0 1 0 C1.33 2.64 1.66 5.28 2 8 C1.13375 7.195625 0.2675 6.39125 -0.625 5.5625 C-3.62876093 3.03075864 -6.03203262 2.28342624 -10 2 C-10 1.67 -10 1.34 -10 1 C-3.375 0.875 -3.375 0.875 0 2 C0 1.34 0 0.68 0 0 Z " fill="#4317A5" transform="translate(46,106)"/>
<path d="M0 0 C0.66 0.33 1.32 0.66 2 1 C0.375 6.75 0.375 6.75 -3 9 C-3.1875 5.625 -3.1875 5.625 -3 2 C-2.01 1.34 -1.02 0.68 0 0 Z " fill="#4D15C0" transform="translate(89,102)"/>
<path d="M0 0 C5.28 0 10.56 0 16 0 C16.33 1.65 16.66 3.3 17 5 C16.47921875 4.51917969 15.9584375 4.03835937 15.421875 3.54296875 C12.29094187 1.54826135 9.93631779 1.49681589 6.25 1.3125 C4.49429687 1.21388672 4.49429687 1.21388672 2.703125 1.11328125 C1.81109375 1.07589844 0.9190625 1.03851562 0 1 C0 0.67 0 0.34 0 0 Z " fill="#471C9C" transform="translate(25,26)"/>
<path d="M0 0 C1.65 0 3.3 0 5 0 C5.66 2.31 6.32 4.62 7 7 C5.83040013 6.02433888 4.66438823 5.044375 3.5 4.0625 C2.8503125 3.51722656 2.200625 2.97195312 1.53125 2.41015625 C1.0259375 1.94480469 0.520625 1.47945312 0 1 C0 0.67 0 0.34 0 0 Z " fill="#371186" transform="translate(42,31)"/>
</svg>
